<?xml version="1.0" standalone="no"?>
<!DOCTYPE svg PUBLIC "-//W3C//DTD SVG 20010904//EN"
 "http://www.w3.org/TR/2001/REC-SVG-20010904/DTD/svg10.dtd">
<svg version="1.0" xmlns="http://www.w3.org/2000/svg"
 width="512.000000pt" height="512.000000pt" viewBox="0 0 512.000000 512.000000"
 preserveAspectRatio="xMidYMid meet">

<g transform="translate(0.000000,512.000000) scale(0.100000,-0.100000)"
fill="#1976d2" stroke="none">
<path d="M828 5109 c-251 -37 -480 -171 -630 -369 -67 -88 -142 -245 -170
-355 l-23 -90 0 -1735 0 -1735 23 -90 c28 -110 103 -267 170 -355 129 -170
324 -298 538 -352 l89 -23 1735 0 1735 0 90 23 c110 28 267 103 355 170 170
129 298 324 352 538 l23 89 0 1735 0 1735 -23 89 c-54 214 -182 409 -352 538
-85 65 -243 142 -350 170 l-85 23 -1710 1 c-940 1 -1736 -2 -1767 -7z m3511
-411 c174 -64 306 -198 362 -370 l24 -73 0 -1695 0 -1695 -24 -73 c-57 -175
-198 -316 -373 -373 l-73 -24 -1695 0 -1695 0 -73 24 c-175 57 -316 198 -373
373 l-24 73 0 1695 0 1695 24 73 c66 203 249 361 449 391 32 5 808 8 1727 7
l1670 -1 74 -27z"/>
<path d="M1482 3292 c-40 -13 -123 -213 -157 -379 -95 -454 20 -899 286 -1108
203 -160 479 -191 705 -79 121 60 230 175 286 302 l21 46 16 -24 c89 -136 162
-203 276 -255 321 -149 673 11 798 362 40 113 52 196 51 363 0 178 -22 308
-78 465 -39 110 -98 220 -122 229 -21 8 -342 -90 -366 -112 -10 -8 -18 -20
-18 -25 0 -6 23 -56 50 -112 66 -135 91 -233 91 -360 1 -164 -41 -257 -134
-301 -124 -57 -248 -9 -316 124 -41 80 -53 143 -58 312 -3 91 -10 171 -15 178
-8 9 -59 12 -193 12 -134 0 -185 -3 -192 -12 -6 -7 -13 -89 -16 -183 -8 -236
-42 -351 -131 -440 -65 -64 -106 -80 -211 -80 -102 0 -142 15 -208 80 -145
141 -145 478 1 783 31 65 32 96 3 111 -15 8 -241 77 -321 99 -19 5 -41 7 -48
4z"/>
</g>
</svg>
